<?xml version="1.0" encoding="utf-8"?>
<!-- Generator: Adobe Illustrator 25.0.0, SVG Export Plug-In . SVG Version: 6.00 Build 0)  -->
<svg version="1.1" id="Layer_1" xmlns="http://www.w3.org/2000/svg" xmlns:xlink="http://www.w3.org/1999/xlink" x="0px" y="0px"
	 viewBox="0 0 1920 1080" style="enable-background:new 0 0 1920 1080;" xml:space="preserve">
<style type="text/css">
	.st0{fill:#AAAAAA;stroke:#2D2D2D;stroke-width:4;stroke-miterlimit:10;}
	.st1{fill:none;stroke:#2D2D2D;stroke-miterlimit:10;}
	.st2{fill:#7951A8;}
	.st3{font-family:'LucidaGrande';}
	.st4{font-size:40px;}
	.st5{fill:#AAAAAA;}
	.st6{font-size:55px;}
</style>
<g>
	<path id="Path_291" class="st0" d="M995.1,958c207.1,0,375-167.5,375-374.1s-167.9-374.1-375-374.1s-375,167.5-375,374.1
		S788,958,995.1,958z"/>
	<path id="Path_292" class="st1" d="M1153.8,608.3c-3.7-5.9-6.7-12.3-8.7-19c-0.7-2.5-1.5-4.9-2.4-7.3c-0.8-1.7-1.7-3.4-2.8-5
		l-5.2-8.7c-2.4-4-5.3-8.3-9.8-9.5c-2.3-0.6-0.1-11.3,0.8-12.6c2.6-3.7,6.2-5.9,8.3-10.2c3.8-8.1,0.2-19,5.7-25.4
		c6.8-7.4,12.9-15.5,18-24.1c2.5-4.8,4.8-9.7,6.8-14.7l7.5-17.5c3.2-6.6,5.1-13.8,5.6-21.2c1.7-15.9,3.3-32.1,0.6-47.9
		c-0.7-4.2-1.8-8.4-3.2-12.4c-1.3-3.5-2.9-6.8-4.4-10.2c-11.6-24.3-18.1-49.6-39.7-67.7c-4.5-3.8-9.3-7.1-14.1-10.4
		c-10.3-7-20.7-14-31.2-20.8c-13.1-8.5-26.7-17-41.9-20.6c-17.8-4.2-36.4-1.5-54.6-3.4c-5.7-0.6-11.2-1.6-16.9-2
		c-14-1.1-28,1.4-41.8,3.9c-12.2,2.2-25.9,5.3-32.7,15.7"/>
	<path id="Path_293" class="st2" d="M991.7,208c30.3-0.4,60.5,3,90,10L996,576L991.7,208z"/>
	<path id="Path_294" class="st1" d="M836.5,365.1c-1.3,5.5,2.3,11,6.2,15.1c1.4,1.4,2.7,2.9,3.9,4.5c3.1,4.5,3.4,10.3,2.8,15.6
		c0,2.5-0.8,5-2.3,7c-2,2.4-4,4.7-6.1,7c-8.2,9.2-16.9,18.1-25.3,27.2c-3,3.3-6,6.6-8.9,10c-1.5,1.4-2.7,3-3.6,4.8
		c-0.4,2.3-0.5,4.7-0.4,7c-0.2,1.5,0,3,0.6,4.4c0.5,1,1.5,1.6,2,2.6s0.8,2.1,1.5,3c1.5,1.7,3.7,2.7,5.9,2.8l5.3,0.9
		c1.2,0.2,2.7,0.8,2.6,2c-0.1,0.5-0.4,0.9-0.7,1.2c-1.9,1.6-4,3-6.1,4.3c-3.6,2.5-3.9,5.3-4.7,9.3c-1,4.5-1.3,9.1-0.9,13.7
		c0.4,4.6,1.9,9.1,4.2,13.2c2.4,3.9,6,6.8,8.2,10.8c1.5,1.7,1.5,4.3-0.1,6c-1.8,2.4-5.1,4.3-6.5,6.7c-1.5,2.5-1.4,6.2-1.7,9.2
		c-0.8,8-1.3,16.1-1.6,24.2c-0.2,3,0,5.9,0.8,8.8c1,2.9,2.7,5.5,4.9,7.5c11.3,11.4,28.9,13.3,45,13.8c4.5,0.2,10-0.2,14.2,1.4
		c5.3,1.9,10,6,15.4,8.1c3.3,1.3,6.8,2.3,10.1,3.9c6.7,3.4,12.5,8.4,16.9,14.5c4,5.8-3.9,12-8.5,15.7c-2.4,2.1-4.9,3.9-7.6,5.5
		c-9.2,5.1-20.3,3.1-29.1,8.6c-11.5,7.3-22.5,15.3-32.8,24c-3.7,2.8-6.9,6.2-9.7,9.9c-1.5,2.2-2.8,4.6-3.9,7
		c-5.1,9.8-9.5,19.9-13,30.4c-1.4,4.6-2.5,9.4-4.2,13.9c-1.8,4.7-4.4,9.1-6.2,13.9c-1.7,5.1-3,10.3-3.8,15.7
		c-0.8,4.7-0.6,12.7-2.9,16.8c-2.1,3.8-8.1,6.7-11.1,10.1c-7,8-11.4,18.1-12.3,28.7c-0.4,5.3-0.1,10.8-2.6,15.5
		c-0.9,1.6-2,3.2-3.2,4.6c-4,5-7.6,10.3-10.8,15.8l0.6-1.7"/>
	<path id="Path_295" class="st1" d="M897.7,257.4c0.3,1.9,1.7,3.5,3.5,4.1s3.7,0.9,5.6,1c1.9,0.1,3.8,0.7,5.4,1.7
		c1.8,1.6,2.9,3.9,3.3,6.2c1.1,4.5,1.7,9.1,1.8,13.7"/>
	<path id="Path_296" class="st1" d="M835.9,364.7l14.7-18.2c6.1-7.3,11.8-14.9,17.1-22.8c3.7-5.7,6.9-11.7,11.6-16.5
		c3.5-3.5,7.4-6.6,11.6-9.3c8-5.6,16.2-11.3,25.5-14"/>
	<path id="Path_297" class="st1" d="M1179.2,638.1l-1.8-4.7c-0.7-2-1.6-3.9-2.7-5.6c-1-1.4-2.2-2.7-3.5-3.8c-3.3-3-6.8-5.8-10.6-8.3
		c-2.9-1.9-6-3.8-7.1-7.1"/>
	<path id="Path_298" class="st1" d="M1276.4,716.7c2,2.8,4.6,5.2,6.9,7.8s3.3,6,5.7,8.5c1.2,1.3,2.7,2.5,4,3.8c2.9,2.8,5,6.2,8,8.9
		c1.3,1.2,2.2,2.8,3.5,4c1.4,1.4,2.9,2.6,4.4,3.9c3.1,2.7,5.8,5.8,8.1,9.2c1.2,2.2,2.8,4.1,4.8,5.6"/>
	<path id="Path_299" class="st1" d="M1179.2,637.7c3.4,4.2,7.3,7.8,11.8,10.7l49.5,36.6c12.6,9.3,25.4,18.8,35.4,31"/>
</g>
<text transform="matrix(1 0 0 1 1022.47 192.7217)" class="st3 st4">23</text>
<text transform="matrix(1 0 0 1 620.0601 864.12)" class="st3 st4">599</text>
<rect x="734.1" y="990.5" class="st5" width="79.2" height="34.2"/>
<rect x="1042" y="990.5" class="st2" width="79.2" height="34.2"/>
<text transform="matrix(1 0 0 1 835.88 1024.7202)" class="st3 st4">Male</text>
<text transform="matrix(1 0 0 1 1143.2831 1025.6948)" class="st3 st4">Female</text>
<text transform="matrix(1 0 0 1 351.9124 118.9478)" class="st3 st6">Nobel Prizes in Medicine, Chemistry and Physics</text>
</svg>
