<?xml version="1.0" encoding="utf-8"?>
<!-- Generator: Adobe Illustrator 25.0.0, SVG Export Plug-In . SVG Version: 6.00 Build 0)  -->
<svg version="1.1" id="Layer_1" xmlns="http://www.w3.org/2000/svg" xmlns:xlink="http://www.w3.org/1999/xlink" x="0px" y="0px"
	 viewBox="0 0 1920 1080" style="enable-background:new 0 0 1920 1080;" xml:space="preserve">
<style type="text/css">
	.st0{fill:#69B3A2;stroke:#003B2D;stroke-width:4;stroke-miterlimit:10;}
	.st1{fill:none;stroke:#003B2D;stroke-miterlimit:10;}
	.st2{fill:#4C4082;}
	.st3{font-family:'LucidaGrande';}
	.st4{font-size:40px;}
	.st5{fill:#69B3A2;}
	.st6{font-size:55px;}
</style>
<g>
	<path id="Path_291" class="st0" d="M995.06,958.02c207.11,0,375-167.51,375-374.13s-167.89-374.13-375-374.13
		s-375,167.5-375,374.13S787.96,958.02,995.06,958.02z"/>
	<path id="Path_292" class="st1" d="M1153.76,608.35c-3.72-5.94-6.65-12.35-8.7-19.05c-0.66-2.49-1.48-4.93-2.43-7.32
		c-0.81-1.74-1.74-3.42-2.76-5.04l-5.25-8.68c-2.41-4-5.26-8.32-9.78-9.51c-2.28-0.6-0.08-11.31,0.83-12.61
		c2.59-3.67,6.24-5.86,8.29-10.19c3.85-8.13,0.18-19.03,5.71-25.39c6.84-7.39,12.88-15.48,18.01-24.14
		c2.54-4.78,4.82-9.68,6.85-14.7l7.46-17.52c3.24-6.63,5.13-13.83,5.55-21.19c1.66-15.93,3.31-32.09,0.64-47.88
		c-0.68-4.21-1.75-8.35-3.18-12.37c-1.27-3.48-2.86-6.83-4.45-10.18c-11.57-24.32-18.12-49.65-39.66-67.73
		c-4.48-3.75-9.29-7.08-14.11-10.38c-10.32-7.05-20.72-13.98-31.2-20.78c-13.11-8.51-26.65-16.96-41.87-20.58
		c-17.77-4.21-36.43-1.53-54.61-3.39c-5.65-0.58-11.25-1.6-16.92-2.04c-14.01-1.08-28.02,1.45-41.85,3.94
		c-12.25,2.22-25.86,5.31-32.66,15.71"/>
	<path id="Path_293" class="st2" d="M991.67,208.04c30.29-0.36,60.51,3.01,89.97,10.02L996,575.95L991.67,208.04z"/>
	<path id="Path_294" class="st1" d="M836.47,365.09c-1.35,5.53,2.28,10.99,6.19,15.15c1.42,1.4,2.72,2.9,3.91,4.51
		c3.08,4.55,3.39,10.26,2.85,15.56c0.04,2.53-0.76,5-2.28,7.03c-1.99,2.37-4.01,4.71-6.08,7.02c-8.24,9.25-16.92,18.09-25.28,27.23
		c-3.01,3.31-5.98,6.63-8.87,10.04c-1.49,1.36-2.72,2.98-3.62,4.79c-0.38,2.33-0.52,4.69-0.43,7.05c-0.23,1.49-0.04,3.02,0.56,4.41
		c0.53,0.96,1.45,1.65,2.03,2.58s0.85,2.07,1.48,3c1.54,1.67,3.67,2.67,5.94,2.78l5.35,0.94c1.19,0.21,2.69,0.83,2.56,2.02
		c-0.1,0.47-0.36,0.89-0.73,1.2c-1.91,1.6-3.95,3.02-6.11,4.26c-3.63,2.52-3.89,5.29-4.71,9.28c-0.98,4.51-1.28,9.14-0.88,13.74
		c0.41,4.64,1.86,9.13,4.23,13.15c2.38,3.91,5.96,6.78,8.23,10.81c1.5,1.72,1.46,4.3-0.1,5.98c-1.77,2.39-5.08,4.34-6.55,6.74
		c-1.55,2.54-1.37,6.2-1.66,9.23c-0.79,8.04-1.32,16.09-1.59,24.17c-0.25,2.95,0,5.92,0.75,8.78c1.03,2.87,2.72,5.45,4.94,7.54
		c11.33,11.41,28.91,13.32,44.99,13.85c4.46,0.15,10.01-0.16,14.24,1.36c5.31,1.92,10.03,5.95,15.38,8.06
		c3.35,1.32,6.84,2.32,10.06,3.89c6.71,3.4,12.5,8.37,16.88,14.47c4.01,5.83-3.94,11.99-8.45,15.69c-2.38,2.07-4.93,3.92-7.64,5.54
		c-9.2,5.14-20.3,3.06-29.12,8.63c-11.48,7.26-22.45,15.29-32.85,24.02c-3.65,2.84-6.89,6.15-9.65,9.86
		c-1.46,2.25-2.77,4.6-3.89,7.03c-5.14,9.75-9.47,19.91-12.96,30.36c-1.41,4.64-2.49,9.39-4.25,13.91
		c-1.84,4.71-4.41,9.12-6.18,13.87c-1.73,5.1-2.99,10.34-3.76,15.66c-0.83,4.69-0.62,12.7-2.9,16.82
		c-2.07,3.76-8.1,6.66-11.08,10.06c-7.05,8.02-11.38,18.06-12.35,28.69c-0.44,5.27-0.1,10.85-2.57,15.54
		c-0.94,1.63-2.02,3.18-3.24,4.61c-3.95,5.02-7.58,10.29-10.85,15.78l0.56-1.67"/>
	<path id="Path_295" class="st1" d="M897.69,257.44c0.31,1.93,1.67,3.52,3.52,4.15c1.83,0.59,3.73,0.91,5.64,0.97
		c1.93,0.06,3.8,0.66,5.41,1.72c1.77,1.65,2.94,3.85,3.31,6.23c1.13,4.48,1.74,9.07,1.82,13.68"/>
	<path id="Path_296" class="st1" d="M835.88,364.73l14.73-18.21c6.1-7.28,11.81-14.87,17.11-22.76c3.67-5.67,6.94-11.68,11.62-16.55
		c3.55-3.46,7.43-6.57,11.58-9.27c8-5.58,16.19-11.27,25.55-14.05"/>
	<path id="Path_297" class="st1" d="M1179.18,638.06l-1.77-4.66c-0.66-1.97-1.55-3.86-2.66-5.63c-1.02-1.42-2.2-2.71-3.52-3.85
		c-3.31-3.03-6.85-5.8-10.6-8.27c-2.86-1.88-6.04-3.85-7.14-7.09"/>
	<path id="Path_298" class="st1" d="M1276.42,716.73c2.04,2.83,4.62,5.19,6.86,7.85s3.35,5.98,5.74,8.55
		c1.24,1.35,2.71,2.49,4.03,3.77c2.86,2.78,5.03,6.2,7.98,8.89c1.32,1.21,2.19,2.78,3.47,4.05c1.39,1.38,2.95,2.59,4.43,3.88
		c3.09,2.71,5.82,5.81,8.11,9.22c1.17,2.19,2.81,4.08,4.81,5.56"/>
	<path id="Path_299" class="st1" d="M1179.2,637.73c3.36,4.15,7.33,7.77,11.78,10.72l49.52,36.61
		c12.64,9.35,25.44,18.84,35.36,31.03"/>
</g>
<text transform="matrix(1 0 0 1 1022.47 192.7217)" class="st3 st4">23</text>
<text transform="matrix(1 0 0 1 620.0601 864.12)" class="st3 st4">599</text>
<rect x="734.11" y="990.47" class="st5" width="79.2" height="34.25"/>
<rect x="1042.04" y="990.47" class="st2" width="79.2" height="34.25"/>
<text transform="matrix(1 0 0 1 835.88 1024.7202)" class="st3 st4">Male</text>
<text transform="matrix(1 0 0 1 1143.2831 1025.6948)" class="st3 st4">Female</text>
<text transform="matrix(1 0 0 1 351.9124 118.9478)" class="st3 st6">Nobel Prizes in Medicine, Chemistry and Physics</text>
</svg>
