<svg id="Layer_1" data-name="Layer 1" xmlns="http://www.w3.org/2000/svg" viewBox="0 0 1770.96 942.73"><defs><style>.cls-1,.cls-2{isolation:isolate;}.cls-2{font-size:75px;font-family:Baskerville;}.cls-3{letter-spacing:-0.1em;}.cls-4{letter-spacing:-0.05em;}.cls-5{letter-spacing:-0.06em;}.cls-6{letter-spacing:-0.01em;}.cls-7{letter-spacing:-0.02em;}.cls-8{letter-spacing:0.01em;}.cls-9{letter-spacing:-0.01em;}.cls-10{letter-spacing:-0.05em;}.cls-11{letter-spacing:-0.03em;}.cls-12{letter-spacing:0.02em;}.cls-13{letter-spacing:-0.03em;}.cls-14{letter-spacing:-0.02em;}.cls-15{letter-spacing:-0.03em;}.cls-16{letter-spacing:-0.08em;}.cls-17{letter-spacing:-0.05em;}.cls-18{letter-spacing:0.03em;}.cls-19{letter-spacing:-0.04em;}.cls-20{letter-spacing:-0.12em;}.cls-21{letter-spacing:-0.06em;}.cls-22{letter-spacing:0.01em;}.cls-23{letter-spacing:0em;}.cls-24{letter-spacing:-0.13em;}.cls-25{letter-spacing:-0.07em;}.cls-26{letter-spacing:0.14em;}.cls-27{letter-spacing:0.03em;}.cls-28{letter-spacing:-0.03em;}.cls-29{letter-spacing:-0.05em;}.cls-30{letter-spacing:-0.01em;}.cls-31{letter-spacing:-0.1em;}.cls-32{letter-spacing:-0.01em;}.cls-33{letter-spacing:-0.05em;}.cls-34{letter-spacing:-0.01em;}.cls-35{letter-spacing:-0.12em;}</style></defs><g id="Lisa_Meitner_Rosalind_Franklin_Émilie_du_Châtelet_Hedy_Lamar_Nettie_Stevens_Katherine_Johnson_The_ENIAC_Programmers_Ada_Lovelace_Chien-Shiung_Wu_Jocelyn_Bell_Burnell_Esther_Lederberg_Grace_Hopper_Vera_Rubin_Alice_Ball_Mary_Anderson_Margar" data-name="Lisa Meitner Rosalind Franklin Émilie du Châtelet Hedy Lamar Nettie Stevens Katherine Johnson The ENIAC Programmers Ada Lovelace Chien-Shiung Wu Jocelyn Bell Burnell Esther Lederberg Grace Hopper Vera Rubin Alice Ball Mary Anderson Margar" class="cls-1"><text class="cls-2" transform="translate(89.59 66.91)">Lisa Meitne<tspan class="cls-3" x="358.59" y="0">r</tspan><tspan x="378.22" y="0">, </tspan><tspan class="cls-4" x="415.72" y="0">R</tspan><tspan x="466.96" y="0">osalind </tspan><tspan class="cls-5" x="699.02" y="0">F</tspan><tspan x="736.23" y="0" xml:space="preserve">ranklin, Émilie du Châtelet,  </tspan></text><text class="cls-2" transform="translate(141.69 151.91)">He<tspan class="cls-6" x="92.98" y="0">d</tspan><tspan x="131.32" y="0">y Lama</tspan><tspan class="cls-3" x="360.24" y="0">r</tspan><tspan x="379.87" y="0">, Nettie St</tspan><tspan class="cls-6" x="682.95" y="0">e</tspan><tspan class="cls-7" x="715.03" y="0">v</tspan><tspan x="747.99" y="0">en</tspan><tspan class="cls-7" x="820.64" y="0">s</tspan><tspan x="844.23" y="0">, </tspan><tspan class="cls-8" x="881.73" y="0">K</tspan><tspan class="cls-9" x="941.05" y="0">a</tspan><tspan x="975.48" y="0">therine </tspan><tspan class="cls-10" x="1207.51" y="0">J</tspan><tspan x="1230.54" y="0">ohnson, </tspan></text><text class="cls-2" transform="translate(242.45 236.91)"><tspan class="cls-8">T</tspan><tspan x="53.06" y="0">he ENI</tspan><tspan class="cls-11" x="274.15" y="0">A</tspan><tspan x="322.85" y="0">C P</tspan><tspan class="cls-7" x="437.7" y="0">r</tspan><tspan x="463.62" y="0">o</tspan><tspan class="cls-12" x="501.12" y="0">g</tspan><tspan x="537.63" y="0">ramme</tspan><tspan class="cls-8" x="753.3" y="0">r</tspan><tspan class="cls-7" x="781.38" y="0">s</tspan><tspan x="804.97" y="0">, Ada L</tspan><tspan class="cls-13" x="1031.54" y="0">o</tspan><tspan class="cls-14" x="1066.96" y="0">v</tspan><tspan x="1099.91" y="0">elac</tspan><tspan class="cls-15" x="1217.91" y="0">e</tspan><tspan x="1248.56" y="0">, </tspan></text><text class="cls-2" transform="translate(0 321.91)">Chien-Shiung <tspan class="cls-16" x="440.63" y="0">W</tspan><tspan x="505.48" y="0">u, </tspan><tspan class="cls-17" x="582.06" y="0">J</tspan><tspan x="605.09" y="0">ocelyn Bell Bu</tspan><tspan class="cls-18" x="1037.22" y="0">r</tspan><tspan x="1066.59" y="0">nell, Esther Lederbe</tspan><tspan class="cls-6" x="1674.46" y="0">r</tspan><tspan class="cls-19" x="1701.09" y="0">g</tspan><tspan x="1733.46" y="0">, </tspan></text><text class="cls-2" transform="translate(37.61 406.91)">Grace Hoppe<tspan class="cls-3" x="412.57" y="0">r</tspan><tspan x="432.2" y="0">, </tspan><tspan class="cls-20" x="469.7" y="0">V</tspan><tspan x="515.37" y="0">era </tspan><tspan class="cls-21" x="629.44" y="0">R</tspan><tspan x="679.25" y="0">ubin, Alice Ball, Ma</tspan><tspan class="cls-22" x="1284.04" y="0">r</tspan><tspan class="cls-23" x="1312.13" y="0">y Ande</tspan><tspan class="cls-22" x="1527.79" y="0">r</tspan><tspan class="cls-23" x="1555.88" y="0">son, </tspan></text><text class="cls-2" transform="translate(362.71 491.91)">Ma<tspan class="cls-6" x="104.7" y="0">r</tspan><tspan class="cls-8" x="131.32" y="0">g</tspan><tspan x="167.21" y="0">a</tspan><tspan class="cls-6" x="202.37" y="0">r</tspan><tspan x="228.99" y="0">et Knight, Ca</tspan><tspan class="cls-6" x="643.03" y="0">r</tspan><tspan x="669.65" y="0">esse C</tspan><tspan class="cls-7" x="857.96" y="0">r</tspan><tspan x="883.89" y="0">os</tspan><tspan class="cls-11" x="946.4" y="0">b</tspan><tspan class="cls-24" x="983.39" y="0">y</tspan><tspan x="1008.03" y="0">,</tspan></text><text class="cls-2" transform="translate(130.26 576.91)"><tspan class="cls-25">T</tspan><tspan class="cls-7" x="46.77" y="0">r</tspan><tspan x="72.69" y="0">otula o</tspan><tspan class="cls-26" x="280.52" y="0">f</tspan><tspan x="311.65" y="0" xml:space="preserve"> Sale</tspan><tspan class="cls-27" x="456.96" y="0">r</tspan><tspan x="486.33" y="0">n</tspan><tspan class="cls-7" x="526.17" y="0">o</tspan><tspan x="562.24" y="0">, Candace </tspan><tspan class="cls-4" x="886.49" y="0">P</tspan><tspan x="925.23" y="0">ert, Maria Merian,</tspan></text><text class="cls-2" transform="translate(194.39 661.91)">Ma<tspan class="cls-8" x="104.7" y="0">r</tspan><tspan x="132.79" y="0">y Anni</tspan><tspan class="cls-19" x="335.16" y="0">g</tspan><tspan x="367.53" y="0">, Henrietta Le</tspan><tspan class="cls-28" x="792.52" y="0">a</tspan><tspan x="825.51" y="0">vitt, </tspan><tspan class="cls-29" x="959.88" y="0">J</tspan><tspan x="982.91" y="0">eanne Ba</tspan><tspan class="cls-30" x="1263.39" y="0">r</tspan><tspan x="1290.01" y="0">et,</tspan></text><text class="cls-2" transform="translate(284.18 746.91)">Ma<tspan class="cls-8" x="104.7" y="0">r</tspan><tspan x="132.79" y="0">y Whiton Calkin</tspan><tspan class="cls-7" x="633.58" y="0">s</tspan><tspan x="657.17" y="0">, Marthe Gautie</tspan><tspan class="cls-31" x="1145.47" y="0">r</tspan><tspan x="1165.1" y="0">,</tspan></text><text class="cls-2" transform="translate(41.69 831.91)">Marian Diamond, <tspan class="cls-5" x="569.57" y="0">F</tspan><tspan x="606.77" y="0">rieda </tspan><tspan class="cls-4" x="778.67" y="0">R</tspan><tspan x="829.91" y="0">oms</tspan><tspan class="cls-32" x="952.59" y="0">c</tspan><tspan x="983.79" y="0">heit-</tspan><tspan class="cls-33" x="1120.5" y="0">R</tspan><tspan x="1171.73" y="0">o</tspan><tspan class="cls-6" x="1209.23" y="0">b</tspan><tspan class="cls-23" x="1247.57" y="0">bin</tspan><tspan class="cls-14" x="1345.24" y="0">s</tspan><tspan x="1368.82" y="0">, Marietta </tspan></text><text class="cls-2" transform="translate(21.57 916.91)">Blau, Hertha <tspan class="cls-25" x="411.77" y="0">W</tspan><tspan x="477.28" y="0">amba</tspan><tspan class="cls-34" x="646.84" y="0">c</tspan><tspan x="678.04" y="0">he</tspan><tspan class="cls-3" x="750.7" y="0">r</tspan><tspan x="770.32" y="0">, Klara Dan </tspan><tspan class="cls-35" x="1151.59" y="0">V</tspan><tspan x="1197.33" y="0">on Neumann, …</tspan></text></g></svg>